<?xml version="1.0" encoding="utf-8"?>
<!-- Generator: Adobe Illustrator 18.1.1, SVG Export Plug-In . SVG Version: 6.00 Build 0)  -->
<svg version="1.1" id="レイヤー_1" xmlns="http://www.w3.org/2000/svg" xmlns:xlink="http://www.w3.org/1999/xlink" x="0px"
	 y="0px" viewBox="0 0 147.2 111.7" enable-background="new 0 0 147.2 111.7" xml:space="preserve">
<g>
	<path fill="#4696B7" d="M91.2,18.4L95.3,0L43.5,48.6l38.9-24L80,38.1c29.4-28.6,51.6-15.9,51.6-15.9C115.8,5.9,91.2,18.4,91.2,18.4
		z"/>
	<path fill="#4696B7" d="M73.6,109.4c0,0-3.1-35.5-48.1-40.9l-12-54c0,0,16.1-6.6,38.1,25.2c0,0-9.8-8.5-12.7-10.4
		c-7-4.7-9.7-3.6-9.7-3.6L34.8,55C34.8,55,72.7,67.4,73.6,109.4z"/>
	<g>
		<g>
			<path fill="#4696B7" d="M128,38.6l6.9,0L125,76.7c-49.9,0.9-51.4,35-51.4,35c17.1-35,57.7-15.4,57.7-15.4l15.8-62.1
				C134.5,33.4,128,38.6,128,38.6z"/>
		</g>
	</g>
	<g>
		<g>
			<path fill="#4696B7" d="M19.2,38.6l-6.9,0l9.8,38.1c49.9,0.9,51.4,35,51.4,35c-17.1-35-57.7-15.4-57.7-15.4L0,34.3
				C12.6,33.4,19.2,38.6,19.2,38.6z"/>
		</g>
	</g>
	<path fill="#4696B7" d="M131.6,22.1C131.6,22.1,131.6,22.1,131.6,22.1C131.6,22.1,131.6,22.1,131.6,22.1l-4.8-3.3l-7.2-1.8
		l-7.3,38.1c0,0-37.9,12.4-38.7,54.4c0,0,3.1-35.5,48.1-40.9L131.6,22.1L131.6,22.1z"/>
</g>
</svg>
